<svg width="734" height="664" viewBox="0 0 734 664" fill="none" xmlns="http://www.w3.org/2000/svg">
<path d="M468.404 39.6347C482.462 27.1874 503.95 28.4934 516.398 42.552L554.851 85.9821C554.725 86.0906 554.598 86.1982 554.473 86.3082C538.967 100.038 537.527 123.738 551.256 139.243C564.985 154.75 588.685 156.19 604.19 142.462C604.316 142.351 604.438 142.236 604.561 142.125L629.457 170.244C621.554 167.425 612.688 167.442 604.459 170.963L135.057 371.804C117.429 379.346 109.404 400.107 117.134 418.174L134.555 458.89C132.831 459.944 131.167 461.149 129.588 462.511L91.1346 419.083C78.6872 405.024 79.9941 383.536 94.0529 371.088L468.404 39.6347Z" fill="url(#paint0_linear_70_49)"/>
<path d="M600.65 178.031C617.914 170.645 637.897 178.652 645.283 195.916L668.101 249.245C667.948 249.309 667.793 249.371 667.639 249.436C648.598 257.584 639.767 279.623 647.914 298.665C656.061 317.706 678.101 326.537 697.142 318.39C697.295 318.324 697.447 318.254 697.599 318.187L720.024 370.598C727.41 387.862 719.404 407.845 702.139 415.231L242.449 611.917C225.185 619.303 205.203 611.297 197.816 594.032L175.391 541.621C194.115 533.32 202.741 511.484 194.659 492.596C186.578 473.709 164.828 464.87 145.893 472.68L123.076 419.35C115.689 402.086 123.696 382.103 140.96 374.717L600.65 178.031Z" fill="url(#paint1_linear_70_49)" stroke="url(#paint2_linear_70_49)" stroke-width="2"/>
<g clip-path="url(#clip0_70_49)">
<path d="M358.698 451.314L339.988 407.111L348.779 403.39L351.064 408.79L351.462 408.621C351.486 407.591 351.679 406.473 352.041 405.267C352.411 404.041 353.068 402.874 354.014 401.766C354.968 400.638 356.345 399.693 358.145 398.932C360.489 397.939 362.912 397.638 365.413 398.027C367.908 398.402 370.269 399.567 372.494 401.521C374.714 403.46 376.603 406.272 378.162 409.956C379.68 413.542 380.382 416.815 380.27 419.775C380.165 422.715 379.391 425.239 377.947 427.347C376.511 429.436 374.572 430.997 372.13 432.03C370.4 432.763 368.807 433.1 367.351 433.041C365.909 432.977 364.621 432.675 363.487 432.135C362.348 431.58 361.387 430.942 360.604 430.221L360.332 430.336L367.614 447.54L358.698 451.314ZM355.519 419.49C356.329 421.402 357.299 422.957 358.432 424.156C359.565 425.355 360.802 426.139 362.143 426.509C363.478 426.865 364.864 426.739 366.302 426.131C367.753 425.517 368.812 424.599 369.48 423.379C370.142 422.144 370.43 420.706 370.344 419.065C370.266 417.403 369.831 415.637 369.04 413.768C368.254 411.912 367.305 410.389 366.193 409.198C365.08 408.007 363.853 407.227 362.512 406.857C361.17 406.486 359.767 406.611 358.302 407.232C356.851 407.846 355.785 408.749 355.106 409.942C354.44 411.129 354.14 412.539 354.206 414.172C354.273 415.806 354.71 417.579 355.519 419.49ZM405.808 417.899C402.502 419.298 399.372 419.833 396.419 419.504C393.474 419.154 390.837 418.016 388.508 416.09C386.173 414.15 384.288 411.484 382.853 408.094C381.453 404.787 380.866 401.613 381.093 398.572C381.32 395.531 382.303 392.82 384.042 390.438C385.796 388.051 388.249 386.19 391.403 384.855C393.523 383.957 395.642 383.463 397.76 383.373C399.885 383.264 401.918 383.596 403.858 384.371C405.812 385.139 407.607 386.387 409.243 388.113C410.872 389.826 412.266 392.049 413.424 394.784L414.46 397.233L387.314 408.723L384.976 403.197L403.729 395.26C403.185 393.976 402.425 392.957 401.447 392.202C400.47 391.448 399.368 391.001 398.141 390.863C396.922 390.704 395.664 390.899 394.366 391.448C393.013 392.021 391.946 392.843 391.165 393.914C390.392 394.965 389.934 396.138 389.791 397.432C389.642 398.713 389.83 399.991 390.353 401.267L392.577 406.52C393.25 408.111 394.125 409.361 395.201 410.271C396.291 411.175 397.513 411.711 398.867 411.878C400.221 412.045 401.645 411.813 403.138 411.181C404.129 410.762 404.976 410.238 405.682 409.611C406.387 408.983 406.914 408.266 407.264 407.46C407.614 406.654 407.771 405.781 407.735 404.842L416.212 401.896C416.632 404.054 416.506 406.148 415.835 408.176C415.171 410.185 413.995 412.032 412.306 413.717C410.625 415.383 408.46 416.777 405.808 417.899ZM427.166 386.203L435.033 404.789L426.117 408.562L412.509 376.415L421.007 372.818L423.408 378.49L423.784 378.33C423.704 376.159 424.271 374.175 425.485 372.378C426.693 370.567 428.49 369.157 430.876 368.147C433.108 367.202 435.261 366.867 437.335 367.14C439.409 367.414 441.29 368.263 442.979 369.688C444.662 371.098 446.032 373.052 447.089 375.549L455.753 396.018L446.837 399.792L438.846 380.914C438.027 378.94 436.875 377.618 435.39 376.947C433.899 376.262 432.261 376.297 430.475 377.053C429.275 377.561 428.324 378.268 427.621 379.174C426.933 380.074 426.54 381.129 426.443 382.338C426.354 383.528 426.595 384.816 427.166 386.203Z" fill="white"/>
<path d="M467.883 405.099L449.173 360.896L457.963 357.175L460.249 362.575L460.646 362.407C460.671 361.376 460.864 360.258 461.226 359.052C461.595 357.826 462.253 356.659 463.199 355.552C464.153 354.424 465.53 353.479 467.33 352.717C469.674 351.725 472.097 351.423 474.598 351.813C477.093 352.188 479.453 353.352 481.679 355.306C483.898 357.246 485.788 360.058 487.347 363.741C488.865 367.327 489.567 370.6 489.454 373.56C489.35 376.5 488.575 379.024 487.131 381.133C485.696 383.221 483.757 384.782 481.315 385.816C479.585 386.548 477.992 386.885 476.536 386.827C475.093 386.763 473.806 386.46 472.672 385.92C471.533 385.366 470.571 384.728 469.789 384.006L469.517 384.121L476.799 401.326L467.883 405.099ZM464.704 373.276C465.513 375.187 466.484 376.743 467.617 377.941C468.749 379.14 469.986 379.925 471.327 380.295C472.663 380.651 474.049 380.525 475.486 379.917C476.937 379.302 477.997 378.385 478.665 377.164C479.327 375.93 479.615 374.492 479.529 372.85C479.451 371.188 479.016 369.423 478.225 367.553C477.439 365.697 476.49 364.174 475.377 362.983C474.264 361.793 473.037 361.012 471.696 360.642C470.355 360.272 468.952 360.397 467.487 361.017C466.036 361.631 464.97 362.535 464.29 363.727C463.624 364.914 463.325 366.324 463.391 367.958C463.457 369.592 463.895 371.364 464.704 373.276ZM509.501 373.984C507.45 374.852 505.471 375.27 503.565 375.238C501.654 375.191 499.932 374.662 498.401 373.648C496.877 372.615 495.667 371.037 494.769 368.917C494.013 367.131 493.706 365.492 493.848 364C493.99 362.509 494.47 361.154 495.287 359.936C496.104 358.718 497.152 357.617 498.429 356.632C499.721 355.641 501.13 354.732 502.655 353.905C504.442 352.918 505.873 352.099 506.946 351.448C508.013 350.782 508.731 350.165 509.1 349.598C509.468 349.031 509.508 348.405 509.219 347.721L509.166 347.596C508.604 346.27 507.752 345.422 506.607 345.051C505.477 344.674 504.152 344.807 502.631 345.451C501.026 346.13 499.9 347.026 499.252 348.139C498.599 349.239 498.343 350.383 498.485 351.574L489.955 354.394C489.547 352.264 489.656 350.227 490.281 348.284C490.901 346.327 492.018 344.555 493.632 342.966C495.255 341.358 497.35 340.011 499.917 338.924C501.703 338.168 503.501 337.654 505.311 337.381C507.135 337.103 508.867 337.135 510.509 337.476C512.165 337.812 513.655 338.514 514.979 339.582C516.297 340.637 517.361 342.12 518.17 344.031L527.348 365.714L518.892 369.293L517.005 364.835L516.754 364.942C516.663 366.165 516.348 367.343 515.807 368.477C515.261 369.596 514.473 370.629 513.442 371.576C512.405 372.508 511.091 373.311 509.501 373.984ZM509.45 366.75C510.761 366.195 511.81 365.447 512.596 364.505C513.376 363.55 513.863 362.504 514.058 361.369C514.252 360.234 514.11 359.102 513.631 357.971L512.187 354.56C511.985 354.859 511.672 355.189 511.249 355.549C510.833 355.89 510.352 356.25 509.805 356.629C509.253 356.995 508.697 357.353 508.138 357.705C507.574 358.043 507.062 358.35 506.603 358.626C505.622 359.223 504.811 359.854 504.172 360.519C503.532 361.185 503.117 361.895 502.927 362.65C502.73 363.392 502.809 364.181 503.164 365.018C503.677 366.232 504.51 366.974 505.66 367.243C506.819 367.493 508.082 367.329 509.45 366.75ZM551.286 328.484L543.336 332.441C542.901 331.803 542.336 331.302 541.639 330.939C540.936 330.562 540.137 330.365 539.242 330.349C538.355 330.313 537.395 330.514 536.363 330.951C534.981 331.536 533.94 332.322 533.24 333.309C532.533 334.283 532.383 335.251 532.791 336.214C533.116 336.981 533.697 337.5 534.536 337.771C535.374 338.041 536.608 338.021 538.236 337.71L544.551 336.419C547.948 335.738 550.715 335.784 552.853 336.558C554.99 337.331 556.549 338.876 557.529 341.192C558.421 343.299 558.582 345.411 558.014 347.527C557.459 349.637 556.297 351.594 554.526 353.396C552.763 355.179 550.486 356.661 547.696 357.842C543.44 359.643 539.674 360.193 536.399 359.49C533.131 358.767 530.632 356.962 528.9 354.075L537.474 349.903C538.289 351.088 539.35 351.807 540.658 352.06C541.96 352.299 543.406 352.081 544.997 351.408C546.56 350.746 547.688 349.915 548.383 348.913C549.086 347.892 549.241 346.897 548.847 345.928C548.491 345.125 547.868 344.607 546.98 344.374C546.086 344.127 544.882 344.16 543.369 344.471L537.332 345.718C533.927 346.419 531.129 346.32 528.939 345.421C526.762 344.516 525.166 342.863 524.15 340.464C523.276 338.399 523.081 336.383 523.566 334.418C524.064 332.446 525.16 330.625 526.855 328.953C528.563 327.276 530.792 325.856 533.541 324.692C537.601 322.973 541.16 322.479 544.216 323.209C547.287 323.933 549.643 325.691 551.286 328.484ZM584.381 314.476L576.431 318.433C575.996 317.795 575.431 317.294 574.734 316.931C574.031 316.553 573.232 316.357 572.337 316.341C571.45 316.305 570.49 316.506 569.458 316.943C568.076 317.527 567.035 318.314 566.335 319.301C565.628 320.275 565.478 321.243 565.886 322.206C566.211 322.973 566.792 323.492 567.631 323.763C568.469 324.033 569.703 324.013 571.331 323.702L577.646 322.411C581.043 321.73 583.81 321.776 585.947 322.55C588.085 323.323 589.644 324.868 590.624 327.184C591.516 329.291 591.677 331.403 591.109 333.519C590.554 335.629 589.391 337.586 587.621 339.388C585.858 341.171 583.581 342.653 580.791 343.834C576.535 345.635 572.769 346.185 569.494 345.481C566.226 344.759 563.727 342.954 561.995 340.067L570.569 335.895C571.384 337.08 572.445 337.799 573.753 338.052C575.055 338.29 576.501 338.073 578.092 337.4C579.655 336.738 580.783 335.907 581.478 334.905C582.181 333.884 582.336 332.889 581.942 331.92C581.586 331.117 580.963 330.599 580.075 330.366C579.181 330.119 577.977 330.152 576.464 330.463L570.427 331.71C567.022 332.411 564.224 332.312 562.034 331.413C559.857 330.508 558.261 328.855 557.245 326.455C556.371 324.39 556.176 322.375 556.661 320.41C557.159 318.438 558.255 316.617 559.95 314.945C561.658 313.268 563.887 311.847 566.636 310.684C570.696 308.965 574.255 308.471 577.311 309.201C580.382 309.925 582.738 311.683 584.381 314.476Z" fill="#38BDF8"/>
<path d="M261.083 399.219C274.904 393.347 290.497 393.218 304.431 398.859C318.364 404.5 329.498 415.449 335.382 429.299C341.265 443.149 341.418 458.764 335.805 472.709C330.192 486.654 319.274 497.787 305.452 503.659" stroke="#47C8FF" stroke-opacity="0.25" stroke-width="2" stroke-linecap="round"/>
<path d="M265.649 409.528C271.096 407.214 276.946 405.997 282.866 405.948C288.786 405.899 294.659 407.018 300.15 409.241C305.642 411.464 310.644 414.748 314.87 418.905C319.097 423.062 322.466 428.011 324.785 433.469C327.104 438.927 328.327 444.788 328.384 450.716C328.442 456.644 327.333 462.524 325.121 468.019C322.909 473.515 319.637 478.52 315.492 482.746C311.347 486.973 306.41 490.339 300.963 492.653" stroke="#47C8FF" stroke-opacity="0.55" stroke-width="2" stroke-linecap="round"/>
<path d="M270.175 420.182C274.226 418.461 278.577 417.556 282.979 417.52C287.381 417.483 291.749 418.315 295.833 419.969C299.916 421.622 303.636 424.064 306.779 427.155C309.922 430.247 312.428 433.927 314.152 437.986C315.877 442.045 316.786 446.403 316.829 450.812C316.872 455.221 316.048 459.593 314.403 463.68C312.758 467.767 310.324 471.488 307.242 474.632C304.159 477.775 300.488 480.278 296.437 481.999" stroke="#47C8FF" stroke-width="2.5" stroke-linecap="round"/>
<path d="M273.251 454.414C275.75 460.3 282.537 463.051 288.412 460.557C294.287 458.064 297.023 451.27 294.525 445.384C292.026 439.497 285.238 436.747 279.364 439.24C273.489 441.734 270.752 448.527 273.251 454.414Z" fill="#47C8FF"/>
</g>
<rect x="231.738" y="394.802" width="378" height="142.244" rx="13" transform="rotate(-23 231.738 394.802)" stroke="white" stroke-opacity="0.67" stroke-width="4"/>
<g filter="url(#filter0_f_70_49)">
<path d="M242 646C352.457 646 442 639.732 442 632C442 624.268 352.457 618 242 618C131.543 618 42 624.268 42 632C42 639.732 131.543 646 242 646Z" fill="#3AB8F0" fill-opacity="0.18"/>
</g>
<path d="M242 642C346.934 642 432 637.523 432 632C432 626.477 346.934 622 242 622C137.066 622 52 626.477 52 632C52 637.523 137.066 642 242 642Z" fill="url(#paint3_radial_70_49)"/>
<defs>
<filter id="filter0_f_70_49" x="30" y="606" width="424" height="52" filterUnits="userSpaceOnUse" color-interpolation-filters="sRGB">
<feFlood flood-opacity="0" result="BackgroundImageFix"/>
<feBlend mode="normal" in="SourceGraphic" in2="BackgroundImageFix" result="shape"/>
<feGaussianBlur stdDeviation="6" result="effect1_foregroundBlur_70_49"/>
</filter>
<linearGradient id="paint0_linear_70_49" x1="10" y1="233.878" x2="352.856" y2="558.543" gradientUnits="userSpaceOnUse">
<stop stop-color="#63A5F1" stop-opacity="0.59"/>
<stop offset="0.5" stop-color="#5575F7" stop-opacity="0.24"/>
<stop offset="1" stop-color="#48ECBE" stop-opacity="0"/>
</linearGradient>
<linearGradient id="paint1_linear_70_49" x1="109.701" y1="388.091" x2="456.594" y2="704.924" gradientUnits="userSpaceOnUse">
<stop stop-color="white" stop-opacity="0.1"/>
<stop offset="1" stop-color="white" stop-opacity="0.02"/>
</linearGradient>
<linearGradient id="paint2_linear_70_49" x1="109.701" y1="388.091" x2="456.594" y2="704.924" gradientUnits="userSpaceOnUse">
<stop stop-color="white" stop-opacity="0.4"/>
<stop offset="1" stop-color="white" stop-opacity="0.05"/>
</linearGradient>
<radialGradient id="paint3_radial_70_49" cx="0" cy="0" r="1" gradientUnits="userSpaceOnUse" gradientTransform="translate(242 630) scale(190 10)">
<stop stop-color="#47C8FF" stop-opacity="0.35"/>
<stop offset="0.45" stop-color="#2A7FA8" stop-opacity="0.18"/>
<stop offset="1" stop-color="#1A4A5A" stop-opacity="0"/>
</radialGradient>
<clipPath id="clip0_70_49">
<rect width="403" height="133" fill="white" transform="translate(242.111 396.409) rotate(-23)"/>
</clipPath>
</defs>
</svg>
