<svg width="132" height="132" viewBox="-14 0 132 132" fill="none" xmlns="http://www.w3.org/2000/svg">
<g clip-path="url(#clip0_70_51)">
<mask id="mask0_70_51" style="mask-type:luminance" maskUnits="userSpaceOnUse" x="0" y="0" width="104" height="132">
<path d="M104 132L104 0L-7.62939e-06 0L-7.62939e-06 132H104Z" fill="white"/>
</mask>
<g mask="url(#mask0_70_51)">
<path d="M36.9432 8.12256C51.9603 8.118 66.3641 14.0912 76.9862 24.7283C87.6081 35.3651 93.578 49.7946 93.5825 64.8421C93.5871 79.8897 87.6259 94.3228 77.0104 104.966C66.3948 115.61 51.9947 121.592 36.9776 121.596" stroke="#47C8FF" stroke-width="8" stroke-linecap="round"/>
<path d="M37.1185 19.396C43.0365 19.3942 48.8973 20.5605 54.3656 22.8282C59.8342 25.096 64.8033 28.4207 68.9894 32.6128C73.1755 36.8048 76.4966 41.7819 78.7631 47.2602C81.0295 52.7382 82.1969 58.6101 82.1987 64.5401C82.2005 70.4704 81.0366 76.343 78.7735 81.8224C76.5102 87.302 73.1921 92.2812 69.0086 96.4755C64.8252 100.67 59.858 103.998 54.391 106.269C48.9239 108.54 43.064 109.71 37.1457 109.712" stroke="#47C8FF" stroke-width="8" stroke-linecap="round"/>
<path d="M37.1217 30.9717C41.523 30.9703 45.8813 31.8376 49.9479 33.5239C54.0146 35.2105 57.71 37.6831 60.8231 40.8004C63.9359 43.9179 66.4058 47.6192 68.0913 51.6931C69.7768 55.7671 70.6451 60.1337 70.6462 64.5437C70.6476 68.9539 69.7821 73.321 68.0992 77.3959C66.416 81.4707 63.9486 85.1737 60.8374 88.293C57.7262 91.4124 54.0324 93.887 49.9666 95.576C45.9012 97.2649 41.5433 98.1349 37.1421 98.1361" stroke="#47C8FF" stroke-width="10" stroke-linecap="round"/>
<path d="M26.5779 63.6839C26.5779 70.0788 31.7515 75.2629 38.1334 75.2629C44.5154 75.2629 49.689 70.0788 49.689 63.6839C49.689 57.2891 44.5154 52.105 38.1334 52.105C31.7515 52.105 26.5779 57.2891 26.5779 63.6839Z" fill="#47C8FF"/>
</g>
</g>
<defs>
<clipPath id="clip0_70_51">
<rect width="132" height="104" fill="white" transform="matrix(0 1 -1 0 104 0)"/>
</clipPath>
</defs>
</svg>
